<svg width="96" height="96" xmlns="http://www.w3.org/2000/svg" xmlns:xlink="http://www.w3.org/1999/xlink" overflow="hidden"><defs><clipPath id="clip0"><rect x="22" y="401" width="96" height="96"/></clipPath></defs><g clip-path="url(#clip0)" transform="translate(-22 -401)"><path d="M86 431C86 439.837 78.8366 447 70 447 61.1634 447 54 439.837 54 431 54 422.163 61.1634 415 70 415 78.8366 415 86 422.163 86 431Z" fill="#7F7F7F"/><path d="M102 483 102 467C102 464.6 100.8 462.2 98.8 460.6 94.4 457 88.8 454.6 83.2 453 79.2 451.8 74.8 451 70 451 65.6 451 61.2 451.8 56.8 453 51.2 454.6 45.6 457.4 41.2 460.6 39.2 462.2 38 464.6 38 467L38 483 102 483Z" fill="#7F7F7F"/></g></svg>